<svg width="71" height="22" viewBox="0 0 71 22" fill="none" xmlns="http://www.w3.org/2000/svg">
<g id="Sign in to Minimal">
<path d="M0 20.036V1.79599L4.992 1.36399C5.2 1.34799 5.4 1.33999 5.592 1.33999C5.784 1.32399 5.96 1.31599 6.12 1.31599C7 1.31599 7.784 1.41999 8.472 1.62799C9.176 1.83599 9.944 2.13999 10.776 2.53999C11.896 3.05199 12.808 3.68399 13.512 4.43599C14.216 5.17199 14.736 6.08399 15.072 7.17199C15.408 8.24399 15.576 9.55599 15.576 11.108C15.576 13.14 15.232 14.852 14.544 16.244C13.872 17.636 12.944 18.708 11.76 19.46C10.576 20.196 9.208 20.636 7.656 20.78L2.4 21.236L0 20.036ZM5.232 19.364C6.736 19.236 8.064 18.804 9.216 18.068C10.384 17.332 11.296 16.284 11.952 14.924C12.608 13.564 12.936 11.892 12.936 9.90799C12.936 7.18799 12.352 5.11599 11.184 3.69199C10.032 2.26799 8.32 1.55599 6.048 1.55599C5.888 1.55599 5.72 1.56399 5.544 1.57999C5.368 1.57999 5.192 1.58799 5.016 1.60399L0.24 2.01199V19.772L5.232 19.364ZM3.864 5.22799L4.56 5.17999C4.736 5.16399 4.896 5.15599 5.04 5.15599C5.2 5.13999 5.36 5.13199 5.52 5.13199C6.352 5.13199 7.032 5.28399 7.56 5.58799C8.104 5.89199 8.504 6.41199 8.76 7.14799C9.032 7.88399 9.168 8.91599 9.168 10.244C9.168 12.132 8.776 13.516 7.992 14.396C7.208 15.26 6.144 15.748 4.8 15.86L3.864 15.932V5.22799ZM6.504 15.188C7.32 14.836 7.928 14.268 8.328 13.484C8.728 12.684 8.928 11.604 8.928 10.244C8.928 8.54799 8.688 7.33199 8.208 6.59599C8.144 6.57999 8.08 6.57199 8.016 6.57199C7.952 6.57199 7.888 6.57199 7.824 6.57199C7.68 6.57199 7.536 6.57999 7.392 6.59599C7.264 6.59599 7.128 6.60399 6.984 6.61999L6.504 6.64399V15.188Z" fill="black"/>
<path d="M25.2028 19.772L24.5068 16.388L23.5468 20.9L19.5388 21.236L17.1388 20.036L13.3468 2.10799L17.6908 1.74799L20.0908 2.94799L20.6188 5.77999L21.4828 1.62799L25.2988 1.31599L27.6028 2.51599L28.3468 6.13999L29.2828 1.17199L33.1708 0.83599L35.5708 2.03599L31.8748 20.636L27.6028 20.996L25.2028 19.772ZM29.4748 1.41199L27.6028 11.588C27.5868 11.732 27.5628 11.916 27.5308 12.14C27.5148 12.364 27.4988 12.572 27.4828 12.764C27.4668 12.94 27.4588 13.028 27.4588 13.028H27.3868C27.3868 13.028 27.3788 12.94 27.3628 12.764C27.3468 12.588 27.3228 12.388 27.2908 12.164C27.2588 11.924 27.2268 11.74 27.1948 11.612L25.0828 1.57999L21.6748 1.86799L19.8028 11.252C19.7708 11.444 19.7308 11.692 19.6828 11.996C19.6348 12.3 19.5948 12.58 19.5628 12.836C19.5468 13.076 19.5388 13.196 19.5388 13.196H19.4668C19.4668 13.196 19.4588 13.084 19.4428 12.86C19.4268 12.62 19.3948 12.348 19.3468 12.044C19.3148 11.724 19.2748 11.444 19.2268 11.204L17.4748 2.01199L13.6348 2.34799L17.3308 19.772L20.9308 19.484L22.9948 9.88399C23.0268 9.72399 23.0588 9.48399 23.0908 9.16399C23.1388 8.82799 23.1708 8.51599 23.1868 8.22799C23.2188 7.93999 23.2348 7.79599 23.2348 7.79599L23.3068 7.77199C23.3068 7.77199 23.3148 7.91599 23.3308 8.20399C23.3628 8.47599 23.3948 8.77999 23.4268 9.11599C23.4748 9.43599 23.5148 9.67599 23.5468 9.83599L25.3948 19.556L29.2588 19.22L32.8588 1.12399L29.4748 1.41199Z" fill="black"/>
<path d="M34.3153 19.7V1.45999L38.4913 1.07599L40.8913 2.27599V20.516L36.7153 20.876L34.3153 19.7ZM34.5553 1.67599V19.436L38.2513 19.1V1.33999L34.5553 1.67599Z" fill="black"/>
<path d="M50.8299 7.79599C50.7179 7.52399 50.5979 7.26799 50.4699 7.02799C50.3579 6.78799 50.2379 6.56399 50.1099 6.35599C48.9899 6.48399 48.1819 7.03599 47.6859 8.01199C47.1899 8.98799 46.9419 10.26 46.9419 11.828C46.9419 13.556 47.1819 14.844 47.6619 15.692C47.7099 15.676 47.7819 15.668 47.8779 15.668C48.3579 15.62 48.7659 15.444 49.1019 15.14C49.4539 14.82 49.7499 14.428 49.9899 13.964C50.2459 13.484 50.4539 12.98 50.6139 12.452L56.4459 15.404C55.8699 17.132 55.1019 18.5 54.1419 19.508C53.1819 20.516 51.8459 21.092 50.1339 21.236C50.0059 21.252 49.8699 21.26 49.7259 21.26C49.5979 21.26 49.4699 21.26 49.3419 21.26C48.2219 21.26 47.1179 21.06 46.0299 20.66C44.9579 20.276 43.9899 19.668 43.1259 18.836C42.2779 18.004 41.5979 16.94 41.0859 15.644C40.5739 14.332 40.3179 12.764 40.3179 10.94C40.3179 9.59599 40.4859 8.33199 40.8219 7.14799C41.1579 5.94799 41.6459 4.89199 42.2859 3.97999C42.9419 3.06799 43.7259 2.33199 44.6379 1.77199C45.5659 1.19599 46.6139 0.859991 47.7819 0.763991C47.9099 0.747991 48.0379 0.73999 48.1659 0.73999C48.2939 0.73999 48.4219 0.73999 48.5499 0.73999C49.8299 0.73999 50.9899 1.01199 52.0299 1.55599C53.0859 2.09999 53.9899 2.81999 54.7419 3.71599C55.5099 4.61199 56.0939 5.60399 56.4939 6.69199L53.2299 8.99599L50.8299 7.79599ZM50.7579 12.812C50.6139 13.276 50.4139 13.74 50.1579 14.204C49.9019 14.668 49.5899 15.06 49.2219 15.38C48.8539 15.684 48.4139 15.86 47.9019 15.908C47.8379 15.924 47.7659 15.932 47.6859 15.932C47.6219 15.932 47.5499 15.932 47.4699 15.932C46.4459 15.932 45.6619 15.516 45.1179 14.684C44.5739 13.852 44.3019 12.5 44.3019 10.628C44.3019 8.94799 44.5739 7.60399 45.1179 6.59599C45.6619 5.58799 46.5419 5.02799 47.7579 4.91599H48.0219C48.8059 4.91599 49.4139 5.16399 49.8459 5.65999C50.2939 6.15599 50.6539 6.74799 50.9259 7.43599L53.8059 5.41999C53.5179 4.65199 53.1419 3.93199 52.6779 3.25999C52.2299 2.58799 51.6539 2.04399 50.9499 1.62799C50.2619 1.19599 49.4139 0.97999 48.4059 0.97999C48.3099 0.97999 48.2139 0.97999 48.1179 0.97999C48.0219 0.97999 47.9179 0.98799 47.8059 1.00399C46.6699 1.09999 45.6539 1.42799 44.7579 1.98799C43.8619 2.53199 43.1019 3.25199 42.4779 4.14799C41.8539 5.04399 41.3739 6.07599 41.0379 7.24399C40.7179 8.39599 40.5579 9.62799 40.5579 10.94C40.5579 12.764 40.8219 14.34 41.3499 15.668C41.8939 16.996 42.6539 18.02 43.6299 18.74C44.6219 19.46 45.7739 19.82 47.0859 19.82C47.1819 19.82 47.2779 19.82 47.3739 19.82C47.4859 19.82 47.5979 19.812 47.7099 19.796C49.3739 19.668 50.6619 19.124 51.5739 18.164C52.5019 17.188 53.2299 15.916 53.7579 14.348L50.7579 12.812Z" fill="black"/>
<path d="M63.7052 19.58V13.196L62.1452 13.34V20.852L58.0172 21.212L55.6172 20.012V1.77199L59.7452 1.41199L62.1452 2.61199V8.01199L63.7052 7.86799V1.31599L67.8572 0.931991L70.2572 2.13199V20.396L66.1052 20.756L63.7052 19.58ZM63.9452 1.53199V8.08399L59.5052 8.46799V1.67599L55.8572 1.98799V19.748L59.5052 19.46V11.924L63.9452 11.54V19.316L67.6172 18.98V1.19599L63.9452 1.53199Z" fill="black"/>
</g>
</svg>
