<svg width="20" height="20" viewBox="0 0 20 20" fill="none" xmlns="http://www.w3.org/2000/svg">
<g id="icons/ic_twitter">
<path id="shape" d="M6.73357 16.6667C9.22307 16.75 11.6405 15.823 13.436 14.0965C15.2315 12.37 16.2525 9.99086 16.2669 7.5C16.8316 6.80117 17.2509 5.99652 17.5002 5.13333C17.5382 4.99402 17.491 4.84537 17.3794 4.75364C17.2679 4.6619 17.1129 4.64416 16.9836 4.70833C16.3778 4.99994 15.6535 4.87251 15.1836 4.39166C14.5925 3.74444 13.7646 3.36413 12.8885 3.33744C12.0125 3.31075 11.1629 3.63995 10.5336 4.25C9.66604 5.09016 9.30235 6.32356 9.57524 7.5C6.78357 7.66666 4.8669 6.34166 3.33357 4.525C3.23944 4.4184 3.09119 4.37756 2.95576 4.4209C2.82032 4.46424 2.72333 4.58356 2.70857 4.725C2.11033 8.04347 3.63929 11.3839 6.5419 13.1C5.5916 14.1899 4.25708 14.8705 2.8169 15C2.65872 15.0262 2.53472 15.1501 2.50836 15.3083C2.482 15.4665 2.55911 15.6239 2.70024 15.7C3.95317 16.3261 5.33293 16.6568 6.73357 16.6667Z" fill="#00AAEC"/>
</g>
</svg>
